<svg width="143" height="42" viewBox="0 0 143 42" fill="none" xmlns="http://www.w3.org/2000/svg">
<path fill-rule="evenodd" clip-rule="evenodd" d="M71.7963 3.42834C62.3291 3.42834 54.6545 11.1035 54.6545 20.5701C54.6545 30.0367 62.3291 37.7118 71.7963 37.7118C81.2623 37.7118 88.938 30.0361 88.938 20.5701C88.938 11.1041 81.2623 3.42834 71.7963 3.42834ZM71.7963 5.9996C79.8423 5.9996 86.3668 12.5241 86.3668 20.5701C86.3668 28.6161 79.8423 35.1406 71.7963 35.1406C63.7492 35.1406 57.2258 28.6167 57.2258 20.5701C57.2258 12.5235 63.7492 5.9996 71.7963 5.9996ZM66.6132 17.0658C66.1107 16.6913 65.3964 16.7313 64.939 17.1867C64.4358 17.6877 64.4341 18.5017 64.935 19.0048L70.8849 24.9805L71.0293 25.1056C71.5334 25.481 72.2502 25.4393 72.707 24.9805L78.6569 19.0048L78.7811 18.8604C79.1534 18.3563 79.1104 17.6421 78.653 17.1867L78.5085 17.0625C78.0044 16.6902 77.2903 16.7332 76.8348 17.1906L71.7943 22.25L66.7571 17.1906L66.6132 17.0658Z" fill="white"/>
<path fill-rule="evenodd" clip-rule="evenodd" d="M21.3664 3.42834C11.8992 3.42834 4.22461 11.1035 4.22461 20.5701C4.22461 30.0367 11.8992 37.7118 21.3664 37.7118C30.8324 37.7118 38.5081 30.0361 38.5081 20.5701C38.5081 11.1041 30.8324 3.42834 21.3664 3.42834ZM21.3664 5.9996C29.4123 5.9996 35.9368 12.5241 35.9368 20.5701C35.9368 28.6161 29.4123 35.1406 21.3664 35.1406C13.3193 35.1406 6.79589 28.6167 6.79589 20.5701C6.79589 12.5235 13.3193 5.9996 21.3664 5.9996ZM16.1833 17.0658C15.6808 16.6913 14.9664 16.7313 14.509 17.1867C14.0059 17.6877 14.0041 18.5017 14.5051 19.0048L20.455 24.9805L20.5994 25.1056C21.1035 25.481 21.8202 25.4393 22.2771 24.9805L28.227 19.0048L28.3511 18.8604C28.7235 18.3563 28.6805 17.6421 28.2231 17.1867L28.0786 17.0625C27.5745 16.6902 26.8603 16.7332 26.4049 17.1906L21.3643 22.25L16.3272 17.1906L16.1833 17.0658Z" fill="white"/>
<path fill-rule="evenodd" clip-rule="evenodd" d="M122.226 3.42834C112.759 3.42834 105.084 11.1035 105.084 20.5701C105.084 30.0367 112.759 37.7118 122.226 37.7118C131.692 37.7118 139.368 30.0361 139.368 20.5701C139.368 11.1041 131.692 3.42834 122.226 3.42834ZM122.226 5.9996C130.272 5.9996 136.797 12.5241 136.797 20.5701C136.797 28.6161 130.272 35.1406 122.226 35.1406C114.179 35.1406 107.656 28.6167 107.656 20.5701C107.656 12.5235 114.179 5.9996 122.226 5.9996ZM117.043 17.0658C116.541 16.6913 115.826 16.7313 115.369 17.1867C114.866 17.6877 114.864 18.5017 115.365 19.0048L121.315 24.9805L121.459 25.1056C121.963 25.481 122.68 25.4393 123.137 24.9805L129.087 19.0048L129.211 18.8604C129.583 18.3563 129.54 17.6421 129.083 17.1867L128.938 17.0625C128.434 16.6902 127.72 16.7332 127.265 17.1906L122.224 22.25L117.187 17.1906L117.043 17.0658Z" fill="white"/>
</svg>
